<svg width="57" height="72" viewBox="0 0 57 72" fill="none" xmlns="http://www.w3.org/2000/svg">
<path fill-rule="evenodd" clip-rule="evenodd" d="M11.9449 0.403872C10.0797 1.00719 7.56078 3.51052 6.68804 5.62741C5.63392 8.18542 5.66894 11.9689 6.77018 14.4754C7.70255 16.5988 10.0973 19.0782 11.6322 19.5101C12.148 19.6553 12.5699 19.9071 12.5691 20.0689C12.5683 20.2311 11.2398 20.964 9.6169 21.6973C7.35646 22.7188 5.94206 23.7958 3.57196 26.2996C-0.637028 30.7466 -0.527779 31.9041 4.29458 33.9373C6.38781 34.82 6.66052 35.0888 6.86401 36.4696C6.95343 38.562 7.07105 42.0687 6.72181 42.1706C5.47505 42.6457 1.62467 45.6682 0.90079 47.2314C-1.91382 53.3115 2.00537 58.8378 10.7311 61.093C17.1113 62.7417 18.6257 63.2701 20.0639 64.3485C22.1909 65.9435 23.1612 67.6629 23.1837 69.879C23.2058 72.0658 23.3147 72.2454 24.35 71.808C25.2695 71.4188 25.3553 67.9979 24.4914 66.1755C22.9502 62.9246 20.0781 61.2024 13.2192 59.4163C4.97342 57.2696 1.62133 54.2383 2.40483 49.6369C2.67629 48.0425 5.76568 44.0278 6.72181 44.0278C6.97409 44.0278 7.14964 45.365 7.14964 47.2875C7.14964 50.141 7.25179 50.5761 7.969 50.7829C8.85925 51.0393 14.139 53.4135 23.0328 57.5563L28.6999 60.1961L33.2488 58.0204C35.7506 56.8239 39.0172 55.2239 40.5079 54.4648C41.9986 53.7057 44.7194 52.3994 46.5541 51.5617L49.89 50.039L50.0046 42.6512L50.1193 35.2639L53.1999 33.7168C55.0397 32.7927 56.4895 31.74 56.7989 31.1032C57.2851 30.1019 57.1024 29.8184 53.8116 26.465C51.0825 23.6842 49.6848 22.6306 47.4953 21.7047C45.9487 21.0508 44.5885 20.3464 44.4726 20.1396C44.3567 19.9333 44.7874 19.562 45.4295 19.3153C46.9611 18.7271 49.0814 16.358 50.1585 14.0307C50.8332 12.5736 50.9849 11.548 50.8557 9.31256C50.6572 5.88059 49.3091 3.32718 46.6851 1.41384C45.2306 0.352867 44.5001 0.146095 42.2063 0.146095C39.9467 0.146095 39.1119 0.374924 37.4523 1.45014C35.4108 2.77257 33.0023 6.21234 33.0023 7.80633C33.0023 8.49052 32.7813 8.56955 31.6471 8.29156C29.8954 7.86193 27.7709 7.87526 25.8094 8.32786C24.4376 8.64399 24.2458 8.5815 24.2458 7.81782C24.2458 6.70033 22.2801 3.488 20.8328 2.24047C18.4748 0.207667 14.8604 -0.539011 11.9449 0.403872ZM18.9351 3.6162C21.2619 5.31449 22.9969 8.68535 22.1342 9.83087C21.6822 10.4314 21.4512 10.1819 20.5284 8.09582C19.6552 6.12275 19.074 5.45418 17.4686 4.57654C16.1643 3.86387 15.1306 3.59185 14.4455 3.78116C12.8768 4.21538 13.1779 5.32782 15.0109 5.8714C17.1309 6.50091 19.3588 8.50798 19.6953 10.4843C19.9259 11.8375 19.0919 12.0948 17.8697 13.9884C17.0746 15.2203 16.2948 16.6939 16.1372 17.2623C15.8149 18.423 15.0205 18.5461 12.9452 17.7576C10.6548 16.8869 9.3442 15.5571 8.40433 13.1498C6.24438 7.61656 9.41467 2.28688 14.8967 2.23404C16.5788 2.21796 17.409 2.50192 18.9351 3.6162ZM45.8511 3.58312C46.7947 4.33623 47.8547 5.56676 48.207 6.31757C48.9551 7.91156 49.0535 11.9413 48.3797 13.3869C47.2 15.9169 44.1932 18.2961 42.1754 18.2961C41.7526 18.2961 41.221 17.7057 40.9178 16.8988C40.6289 16.1305 39.8558 14.685 39.1995 13.6865C38.5431 12.688 37.4523 11.7511 37.4523 11.1547C37.4523 9.32174 39.7378 6.64519 41.6684 5.90402C43.7725 5.09623 44.1665 3.59231 42.2734 3.59231C39.7899 3.59231 36.3382 7.00681 36.3382 9.46373C36.3382 10.652 35.6209 10.6644 34.9475 9.48763C34.6565 8.97942 34.8074 8.16474 35.475 6.64565C37.3964 2.27126 42.3693 0.803632 45.8511 3.58312ZM33.5294 11.4019C35.7865 12.6839 37.4127 14.3707 38.6253 16.6879C40.4037 20.0859 40.3766 20.6814 38.2433 21.0338C37.1358 21.4745 35.8261 21.7776 36.2502 22.5184C36.5329 22.83 37.3093 22.8355 38.5907 22.5341C40.3336 22.1247 40.5079 22.1619 40.5079 22.9467C40.5079 24.01 40.3649 24.52 40.091 24.4341C39.9763 24.3978 39.0852 24.2245 38.1103 24.049C36.8654 24.1649 36.7235 24.2413 36.3382 24.6886C36.3711 25.1307 36.6513 25.2581 36.9924 25.399C37.5595 25.399 37.8997 25.9132 37.2538 27.1184C36.8473 27.8766 35.9641 28.4041 35.7269 28.4027C35.4896 28.4014 33.8463 29.0423 32.075 29.8276L28.8546 31.2553L24.8846 29.5239C22.3502 28.4183 20.2849 27.2512 19.8779 26.567C19.2825 25.5654 19.5251 25.399 20.3132 25.399C21.3034 24.9672 21.0213 24.3414 20.0818 24.168C20.0037 24.159 19.7408 23.9577 18.396 24.168C16.5613 24.6813 16.6096 24.0394 16.9707 22.5184C17.1263 21.8618 17.0679 22.0121 17.4569 22.177C17.8118 22.279 18.8208 22.5211 19.6953 22.7211C21.04 22.9582 21.3269 22.875 21.3269 22.2492C20.9074 21.7562 19.0879 21.5031 18.0199 21.0338C17.0991 20.7418 17.1215 20.2018 17.3523 19.33C18.1841 15.6476 21.7856 11.8338 25.7052 10.4843C27.6362 9.81938 31.5517 10.2784 33.5294 11.4019ZM21.3186 17.8541C20.2553 20.0431 22.5874 22.0176 24.2624 20.3473C25.2507 19.3617 25.2961 18.6003 24.4247 17.6395C23.4985 16.6194 21.8632 16.7325 21.3186 17.8541ZM33.0857 17.469C32.8105 17.7723 32.5853 18.4547 32.5853 18.9854C32.5853 21.0039 35.0705 21.8862 35.9066 20.1644C36.4929 18.9569 36.4512 18.4864 35.6831 17.6395C34.9025 16.7798 33.7783 16.7058 33.0857 17.469ZM22.9948 18.0664C22.9948 18.4455 22.3502 18.9854 22.1342 18.9854C21.6084 18.9854 21.7001 18.0379 22.0333 17.6708C22.5028 17.1534 22.9948 17.356 22.9948 18.0664ZM34.2533 18.0664C34.2533 18.4455 34.0656 18.7556 33.8363 18.7556C33.0857 19.3153 33.0857 18.2961 33.4193 18.0664C33.4193 17.6873 33.6069 17.3772 33.8363 17.3772C34.0656 17.3772 34.2533 17.6873 34.2533 18.0664ZM26.7614 22.5465C26.7764 23.6552 27.951 24.7136 28.6528 24.7136C29.335 24.7136 31.0179 22.9237 30.7611 22.1858C30.603 21.7318 29.9117 21.5126 28.637 21.5126C26.9515 21.5126 26.7493 21.6243 26.7614 22.5465ZM11.1856 25.723C13.0328 26.5666 13.3013 26.8391 12.9657 27.5306C12.2726 28.9573 12.5362 30.2756 13.7892 31.6569C15.5509 33.5982 17.6613 33.5284 19.4051 31.4703L20.7014 29.9407L23.74 31.3044C25.4112 32.0543 26.7247 32.824 26.6588 33.0151C26.5929 33.2063 25.0681 34.707 23.27 36.3497L20.0005 39.3369L15.5559 37.0431C13.1112 35.7813 9.28123 33.8032 7.04539 32.6466C4.80955 31.4901 2.98568 30.4245 2.99319 30.2784C3.03405 29.4596 7.71756 24.7291 8.4873 24.7291C8.7746 24.7291 9.98884 25.1762 11.1856 25.723ZM51.6338 27.3123C53.1024 28.7331 54.2491 30.0767 54.1819 30.2977C54.1148 30.5192 50.3286 32.6673 45.7681 35.0714C38.8133 38.7377 37.3681 39.3502 36.8031 38.8705C34.9225 37.2724 30.9174 33.3092 30.9174 33.0459C30.9174 32.8805 32.1546 32.1513 33.6666 31.4253L36.4157 30.1056L37.3293 31.3683C38.6895 33.2476 41.5737 33.527 43.2462 31.9408C44.2999 30.9414 44.4651 30.4695 44.4405 28.5323C44.4129 26.386 44.4797 26.25 45.8999 25.5502C48.2433 24.3959 48.7941 24.5655 51.6338 27.3123ZM18.3247 27.1184C19.0581 27.9267 18.9656 30.243 18.1996 30.243C17.8522 30.243 17.5741 29.8345 17.5741 29.324C17.3944 29.075 17.5937 29.0943 17.3715 29.0943C17.1496 29.0943 17.0579 29.2004 17.1701 29.5239C17.2822 29.8474 17.4549 30.033 17.163 30.4728C16.6755 31.2066 16.0375 31.1202 15.1765 30.4553C13.9818 29.5335 13.9772 28.1992 15.1652 27.2825C16.2715 26.4283 17.6342 26.3575 18.3247 27.1184ZM41.9361 27.4484C42.9093 28.6329 42.6483 30.4314 41.4762 30.6152C40.7602 30.7278 40.6497 31.1239 40.5079 30.1056C40.3361 28.8696 40.0055 29.1159 39.7027 30.1056C39.3004 31.4234 38.5657 30.5426 38.1895 29.2376C37.9773 28.5011 38.1495 28.0099 38.8334 27.3996C40.0338 26.3286 41.0296 26.3442 41.9361 27.4484ZM27.4165 56.7696C27.3168 56.879 23.1383 55.0378 18.1308 52.6778L9.02604 48.3866L9.02354 42.5313C9.02229 38.553 9.16948 36.6759 9.48305 36.6759C9.73741 36.6759 12.0479 37.8132 14.6181 39.2032C17.188 40.5931 19.5552 41.7304 19.8779 41.7304C20.2011 41.7304 21.374 40.8518 22.4849 39.7775C23.5957 38.7032 25.1498 37.2462 25.9387 36.539L27.3731 35.2529L27.4853 45.9118C27.547 51.7736 27.5157 56.6598 27.4165 56.7696ZM34.3517 39.5478C35.6084 40.7484 36.9144 41.7304 37.2538 41.7304C37.5937 41.7304 39.7382 40.7245 42.0199 39.4949C48.6374 35.9288 48.0136 35.6255 48.0136 42.4123V48.2102L46.4499 48.9132C45.5901 49.2996 42.916 50.6561 40.5079 51.927C35.651 54.4905 30.5793 56.8937 30.0259 56.8937C29.8283 56.8937 29.6665 52.0194 29.6665 46.0625V35.2308L30.8666 36.2982C31.5266 36.885 33.0949 38.3471 34.3517 39.5478Z" fill="#FFF5E6"/>
<path d="M30.2978 26.33C30.485 26.1568 30.5447 26.0165 30.5063 25.8705C30.226 25.7974 29.4903 25.7353 29.2553 25.6408C29.0203 25.5462 28.8326 25.0813 28.6871 24.7098C28.6683 24.6514 28.668 24.7644 28.6528 24.7136C28.5849 24.4196 27.9952 25.6228 28.0044 25.6408C28.0136 25.6587 26.8286 25.84 26.7534 25.8705C26.6783 25.901 26.7963 26.2047 26.9619 26.33C27.1645 26.5215 27.6987 26.6986 28.6299 26.33C29.4054 26.6122 30.0616 26.5108 30.2978 26.33Z" fill="#FFFFFF"/>
</svg>
