<svg width="40" height="50" viewBox="0 0 40 50" fill="none" xmlns="http://www.w3.org/2000/svg">
<path fill-rule="evenodd" clip-rule="evenodd" d="M8.38238 0.280467C7.07351 0.699437 5.30581 2.43786 4.69336 3.90792C3.95363 5.68432 3.9782 8.31173 4.75101 10.0524C5.4053 11.5269 7.0858 13.2487 8.16292 13.5487C8.52488 13.6495 8.82101 13.8244 8.82043 13.9367C8.81984 14.0494 7.88757 14.5583 6.7487 15.0676C5.16243 15.7769 4.16987 16.5249 2.50664 18.2636C-0.447037 21.3518 -0.370371 22.1556 3.01374 23.5676C4.48268 24.1806 4.67405 24.3672 4.81685 25.3261C4.8796 26.7792 4.96214 29.2144 4.71706 29.2851C3.84214 29.6151 1.14012 31.7141 0.632134 32.7996C-1.34303 37.0219 1.40727 40.8596 7.53057 42.4257C12.0079 43.5706 13.0707 43.9376 14.0799 44.6865C15.5726 45.7941 16.2535 46.9881 16.2693 48.5271C16.2848 50.0457 16.3612 50.1704 17.0877 49.8667C17.7329 49.5964 17.7932 47.2207 17.1869 45.9552C16.1054 43.6976 14.0899 42.5017 9.27662 41.2613C3.49012 39.7705 1.13778 37.6655 1.6876 34.4701C1.8781 33.3628 4.04609 30.5749 4.71706 30.5749C4.8941 30.5749 5.01729 31.5035 5.01729 32.8385C5.01729 34.8201 5.08898 35.1223 5.59228 35.2659C6.21702 35.4439 9.92213 37.0927 16.1634 39.9696L20.1403 41.8028L23.3325 40.2919C25.0882 39.461 27.3805 38.3499 28.4266 37.8228C29.4727 37.2956 31.3821 36.3885 32.6696 35.8068L35.0105 34.7493L35.091 29.6189L35.1714 24.4888L37.3333 23.4144C38.6243 22.7727 39.6417 22.0417 39.8589 21.5994C40.2001 20.9041 40.0719 20.7072 37.7626 18.3785C35.8474 16.4473 34.8665 15.7157 33.33 15.0727C32.2447 14.6186 31.2902 14.1294 31.2088 13.9859C31.1275 13.8426 31.4297 13.5848 31.8804 13.4134C32.9552 13.005 34.4431 11.3597 35.1989 9.74351C35.6724 8.73166 35.7789 8.01944 35.6882 6.46705C35.5489 4.08374 34.6029 2.31054 32.7614 0.981834C31.7408 0.245047 31.2281 0.101455 29.6185 0.101455C28.0328 0.101455 27.4469 0.260364 26.2823 1.00704C24.8497 1.92539 23.1595 4.31413 23.1595 5.42106C23.1595 5.89619 23.0044 5.95108 22.2085 5.75803C20.9792 5.45967 19.4884 5.46893 18.1119 5.78324C17.1492 6.00277 17.0146 5.95938 17.0146 5.42904C17.0146 4.65301 15.6352 2.42222 14.6195 1.55588C12.9648 0.144213 10.4284 -0.374313 8.38238 0.280467ZM13.2878 2.51125C14.9206 3.69062 16.1382 6.03149 15.5328 6.82699C15.2156 7.24405 15.0535 7.07078 14.4059 5.62209C13.7932 4.25191 13.3852 3.78762 12.2587 3.17816C11.3434 2.68324 10.618 2.49434 10.1372 2.6258C9.03638 2.92735 9.24765 3.69987 10.534 4.07736C12.0217 4.51452 13.5851 5.90832 13.8212 7.28074C13.9831 8.22047 13.3978 8.39917 12.5402 9.71415C11.9822 10.5696 11.435 11.593 11.3243 11.9877C11.0982 12.7937 10.5407 12.8792 9.08437 12.3317C7.47702 11.727 6.55733 10.8035 5.89777 9.13181C4.38202 5.28928 6.60678 1.58811 10.4538 1.55142C11.6342 1.54025 12.2168 1.73745 13.2878 2.51125ZM32.1762 2.48828C32.8384 3.01127 33.5822 3.8658 33.8295 4.3872C34.3545 5.49414 34.4235 8.29259 33.9506 9.29646C33.1228 11.0534 31.0128 12.7057 29.5968 12.7057C29.3001 12.7057 28.927 12.2956 28.7143 11.7353C28.5115 11.2018 27.969 10.1979 27.5084 9.50451C27.0478 8.81112 26.2823 8.16048 26.2823 7.74629C26.2823 6.47343 27.8862 4.61471 29.241 4.10002C30.7175 3.53905 30.994 2.49466 29.6656 2.49466C27.9227 2.49466 25.5005 4.86584 25.5005 6.57204C25.5005 7.39721 24.9972 7.40583 24.5246 6.58863C24.3203 6.23571 24.4263 5.66996 24.8947 4.61503C26.2431 1.57726 29.7329 0.558078 32.1762 2.48828ZM23.5294 7.91797C25.1133 8.80824 26.2545 9.97964 27.1055 11.5888C28.3535 13.9485 28.3344 14.3621 26.8374 14.6068C26.0602 14.9129 25.1411 15.1234 25.4387 15.6378C25.6371 15.8542 26.182 15.858 27.0812 15.6487C28.3043 15.3643 28.4266 15.3902 28.4266 15.9352C28.4266 16.6736 28.3263 17.0278 28.134 16.9681C28.0535 16.9429 27.4282 16.8226 26.7441 16.7007C25.8704 16.7812 25.7709 16.8342 25.5005 17.1449C25.5236 17.4519 25.7202 17.5403 25.9596 17.6382C26.3575 17.6382 26.5963 17.9953 26.143 18.8322C25.8577 19.3588 25.238 19.7251 25.0715 19.7241C24.905 19.7232 23.7518 20.1683 22.5087 20.7136L20.2489 21.7051L17.4629 20.5027C15.6843 19.735 14.235 18.9245 13.9494 18.4493C13.5316 17.7537 13.7019 17.6382 14.2549 17.6382C14.9497 17.3384 14.7518 16.9038 14.0925 16.7833C14.0377 16.7771 13.8532 16.6373 12.9095 16.7833C11.6219 17.1398 11.6559 16.694 11.9093 15.6378C12.0184 15.1818 11.9775 15.2862 12.2505 15.4007C12.4995 15.4715 13.2076 15.6396 13.8212 15.7785C14.7649 15.9432 14.9663 15.8854 14.9663 15.4508C14.6718 15.1085 13.395 14.9327 12.6455 14.6068C11.9994 14.404 12.0151 14.029 12.177 13.4236C12.7608 10.8664 15.2881 8.21792 18.0387 7.28074C19.3938 6.81901 22.1415 7.13779 23.5294 7.91797ZM14.9604 12.3987C14.2142 13.9188 15.8508 15.29 17.0263 14.1301C17.7198 13.4456 17.7517 12.9169 17.1401 12.2497C16.4902 11.5413 15.3426 11.6198 14.9604 12.3987ZM23.218 12.1313C23.0249 12.3419 22.8669 12.8157 22.8669 13.1843C22.8669 14.5861 24.6109 15.1987 25.1976 14.0031C25.609 13.1645 25.5798 12.8378 25.0408 12.2497C24.493 11.6526 23.7041 11.6013 23.218 12.1313ZM16.1367 12.5461C16.1367 12.8094 15.6843 13.1843 15.5328 13.1843C15.1638 13.1843 15.2281 12.5263 15.4619 12.2714C15.7914 11.9121 16.1367 12.0528 16.1367 12.5461ZM24.0374 12.5461C24.0374 12.8094 23.9057 13.0247 23.7448 13.0247C23.218 13.4134 23.218 12.7057 23.4521 12.5461C23.4521 12.2829 23.5838 12.0675 23.7448 12.0675C23.9057 12.0675 24.0374 12.2829 24.0374 12.5461ZM18.7799 15.6573C18.7905 16.4272 19.6148 17.1622 20.1072 17.1622C20.586 17.1622 21.767 15.9192 21.5867 15.4068C21.4758 15.0915 20.9907 14.9393 20.0961 14.9393C18.9134 14.9393 18.7714 15.0168 18.7799 15.6573ZM7.84953 17.8632C9.14582 18.449 9.33426 18.6382 9.09871 19.1185C8.61238 20.1093 8.79731 21.0247 9.67662 21.9839C10.9129 23.3321 12.3939 23.2836 13.6176 21.8544L14.5273 20.7921L16.6596 21.7392C17.8324 22.26 18.7542 22.7944 18.7079 22.9272C18.6617 23.0599 17.5916 24.1021 16.3299 25.2428L14.0354 27.3173L10.9164 25.7244C9.20083 24.8481 6.51314 23.4744 4.94413 22.6713C3.37512 21.8681 2.09522 21.1281 2.10048 21.0267C2.12916 20.458 5.41583 17.173 5.956 17.173C6.15762 17.173 7.00972 17.4834 7.84953 17.8632ZM36.2342 18.9669C37.2648 19.9535 38.0695 20.8866 38.0224 21.0401C37.9753 21.1939 35.3183 22.6856 32.118 24.3551C27.2374 26.9012 26.2232 27.3265 25.8267 26.9934C24.507 25.8836 21.6964 23.1314 21.6964 22.9486C21.6964 22.8337 22.5646 22.3273 23.6257 21.8231L25.5549 20.9067L26.196 21.7835C27.1505 23.0886 29.1746 23.2826 30.3482 22.1811C31.0877 21.4871 31.2036 21.1594 31.1863 19.8141C31.167 18.3236 31.2138 18.2292 32.2105 17.7432C33.855 16.9416 34.2415 17.0594 36.2342 18.9669ZM12.8594 18.8322C13.3741 19.3935 13.3092 21.0021 12.7716 21.0021C12.5279 21.0021 12.3327 20.7184 12.3327 20.3639C12.2066 20.1909 12.3465 20.2044 12.1905 20.2044C12.0348 20.2044 11.9704 20.2781 12.0492 20.5027C12.1279 20.7273 12.249 20.8563 12.0442 21.1616C11.7021 21.6712 11.2544 21.6112 10.6502 21.1495C9.81181 20.5094 9.80859 19.5828 10.6423 18.9462C11.4186 18.353 12.3748 18.3038 12.8594 18.8322ZM29.4288 19.0614C30.1118 19.884 29.9286 21.1329 29.1061 21.2606C28.6037 21.3387 28.5261 21.6138 28.4266 20.9067C28.3061 20.0483 28.074 20.2193 27.8616 20.9067C27.5792 21.8218 27.0636 21.2101 26.7997 20.3039C26.6507 19.7924 26.7716 19.4513 27.2515 19.0275C28.0939 18.2837 28.7927 18.2946 29.4288 19.0614ZM19.2396 39.4234C19.1697 39.4993 16.2374 38.2207 12.7233 36.5818L6.33406 33.6018L6.33231 29.5356C6.33143 26.7729 6.43472 25.4694 6.65477 25.4694C6.83327 25.4694 8.45466 26.2592 10.2583 27.2244C12.0617 28.1897 13.7229 28.9794 13.9494 28.9794C14.1762 28.9794 14.9993 28.3693 15.7789 27.6233C16.5584 26.8772 17.649 25.8654 18.2026 25.3743L19.2092 24.4812L19.2879 31.8832C19.3312 35.9539 19.3093 39.3471 19.2396 39.4234ZM24.1064 27.4637C24.9884 28.2975 25.9049 28.9794 26.143 28.9794C26.3815 28.9794 27.8865 28.2809 29.4877 27.427C34.1315 24.9505 33.6937 24.7399 33.6937 29.453V33.4793L32.5964 33.9675C31.993 34.2359 30.1165 35.1778 28.4266 36.0604C25.0182 37.8407 21.4591 39.5095 21.0708 39.5095C20.9321 39.5095 20.8186 36.1246 20.8186 31.9878V24.4658L21.6607 25.2071C22.124 25.6146 23.2245 26.6299 24.1064 27.4637Z" fill="url(#paint0_linear_18_15)"/>
<path d="M21.2616 18.2847C21.393 18.1645 21.4349 18.067 21.4079 17.9656C21.2113 17.9149 20.695 17.8717 20.5301 17.8061C20.3651 17.7405 20.2334 17.4176 20.1313 17.1596C20.1181 17.119 20.1179 17.1975 20.1072 17.1622C20.0596 16.958 19.6457 17.7936 19.6522 17.8061C19.6587 17.8186 18.8271 17.9444 18.7744 17.9656C18.7216 17.9868 18.8045 18.1977 18.9207 18.2847C19.0628 18.4177 19.4377 18.5407 20.0911 18.2847C20.6354 18.4807 21.0959 18.4103 21.2616 18.2847Z" fill="url(#paint1_linear_18_15)"/>
<defs>
<linearGradient id="paint0_linear_18_15" x1="20" y1="0" x2="20" y2="50" gradientUnits="userSpaceOnUse">
<stop stop-color="#D4259F"/>
<stop offset="1" stop-color="#FFA826"/>
</linearGradient>
<linearGradient id="paint1_linear_18_15" x1="20" y1="0" x2="20" y2="50" gradientUnits="userSpaceOnUse">
<stop stop-color="#D4259F"/>
<stop offset="1" stop-color="#FFA826"/>
</linearGradient>
</defs>
</svg>
